<svg width="200" height="200" viewBox="0 0 200 200" fill="none" xmlns="http://www.w3.org/2000/svg">
  <circle cx="100" cy="100" r="90" fill="url(#gradient1)"/>
  <path d="M100 50C77.9086 50 60 67.9086 60 90C60 112.091 77.9086 130 100 130C122.091 130 140 112.091 140 90C140 67.9086 122.091 50 100 50Z" fill="white" opacity="0.3"/>
  <circle cx="85" cy="85" r="8" fill="white"/>
  <circle cx="115" cy="85" r="8" fill="white"/>
  <path d="M75 105C75 105 85 115 100 115C115 115 125 105 125 105" stroke="white" stroke-width="4" stroke-linecap="round"/>
  
  <!-- Stars -->
  <circle cx="50" cy="60" r="3" fill="white"/>
  <circle cx="150" cy="70" r="4" fill="white"/>
  <circle cx="160" cy="120" r="3" fill="white"/>
  <circle cx="40" cy="130" r="4" fill="white"/>
  
  <defs>
    <linearGradient id="gradient1" x1="0" y1="0" x2="200" y2="200" gradientUnits="userSpaceOnUse">
      <stop offset="0%" stop-color="#D8C4F3"/>
      <stop offset="50%" stop-color="#BDE0FE"/>
      <stop offset="100%" stop-color="#B6F0DE"/>
    </linearGradient>
  </defs>
</svg>

